<!--?xml version="1.0" encoding="utf-8"?-->
<!-- Svg Vector Icons : http://www.onlinewebfonts.com/icon -->

<svg version="1.1" xmlns="http://www.w3.org/2000/svg" xmlns:xlink="http://www.w3.org/1999/xlink" x="0px" y="0px" viewBox="0 0 256 256" enable-background="new 0 0 256 256" xml:space="preserve">
<metadata> Svg Vector Icons : http://www.onlinewebfonts.com/icon </metadata>
<g><g><g><path fill="#ffffff" data-title="Layer 0" xs="0" d="M120.8,10.2C88.1,13.7,62,37.4,55.5,69.8c-0.8,4.1-1.1,7.2-1.2,16.8L54,98.4l-2,0.3c-4.6,0.6-9.1,4-11.3,8.4l-1.2,2.3v63v63l1.2,2.3c1.4,3,4.2,5.7,7.2,7.2l2.3,1.2H128h77.8l2.3-1.2c3-1.4,5.7-4.2,7.2-7.2l1.2-2.3v-63v-63l-1.2-2.3c-2.2-4.4-6.7-7.8-11.3-8.4l-2-0.3l-0.2-12.1c-0.2-9.6-0.5-13-1.2-16.6c-6.2-30.1-28.9-52.6-58.5-58.4C137.1,10.3,125.3,9.7,120.8,10.2z M138.7,40.8c8.1,2.1,14.6,5.9,20.5,11.8c5.9,5.9,9.6,12.3,11.8,20.5c0.8,3,1,5.3,1.2,14.4l0.2,11H128H83.6l0.2-11C84,78.3,84.1,76,85,73.1c2.2-8.3,5.9-14.7,11.8-20.5c6.7-6.7,14.2-10.7,23.5-12.5C124.9,39.2,134.1,39.5,138.7,40.8z M187.1,172.4v44.3H128H68.9v-44.3v-44.3H128h59.1V172.4z"/><path fill="#ffffff" data-title="Layer 1" xs="1" d="M123.4,143.6c-4.6,1.7-7.9,5.1-9.4,9.7c-0.7,2-0.7,4.9-0.6,23.1c0.1,20.2,0.2,20.9,1.1,22.1c2.4,3.1,2.4,3.2,13.6,3.2c11.1,0,11.3,0,13.6-3.2c1-1.2,1-1.8,1-23v-21.8l-1.2-2.3c-1.5-3-4.2-5.7-7.2-7.1C131.2,142.8,126.3,142.5,123.4,143.6z"/></g></g></g>
</svg>