<!--?xml version="1.0" encoding="utf-8"?-->
<!-- Svg Vector Icons : http://www.onlinewebfonts.com/icon -->

<svg version="1.1" xmlns="http://www.w3.org/2000/svg" xmlns:xlink="http://www.w3.org/1999/xlink" x="0px" y="0px" viewBox="0 0 256 256" enable-background="new 0 0 256 256" xml:space="preserve">
<metadata> Svg Vector Icons : http://www.onlinewebfonts.com/icon </metadata>
<g><g><path fill="#FFFFFF" data-title="Layer 0" xs="0" d="M141.7,163.3h28.8v44.1c0,5.1-0.8,9.6-2.3,13.4c-1.5,3.8-3.6,6.9-6.2,9.3c-2.6,2.4-5.5,4.2-8.9,5.3c-3.4,1.2-7.1,1.7-10.9,1.7H39.5c-3.7,0-7.3-0.7-10.9-2.2c-3.6-1.5-6.7-3.5-9.4-6.2c-2.7-2.6-4.9-5.7-6.6-9.3c-1.7-3.6-2.6-7.5-2.6-11.8V47.4c0-3.7,0.9-7.3,2.7-10.7c1.8-3.4,4.1-6.4,6.9-9.1c2.8-2.6,5.9-4.8,9.3-6.4c3.4-1.6,6.8-2.4,10.2-2.4h102c4,0,7.8,0.9,11.4,2.7c3.6,1.8,6.7,4,9.4,6.7c2.7,2.7,4.8,5.8,6.4,9.2c1.5,3.4,2.3,6.7,2.3,10v42.7h-28.8l0.2-44.4H39.3L39,207.7h102.7L141.7,163.3L141.7,163.3z M241.6,119.8c5.7,4.6,5.9,9.2,0.5,13.7c-3.1,2.3-6.5,5.2-10.1,8.6c-3.6,3.4-7.4,6.9-11.4,10.6c-3.9,3.6-7.9,7.2-11.7,10.8c-3.9,3.6-7.4,6.7-10.7,9.3c-3.6,2.8-6.6,4.2-9.2,4.2s-3.8-1.9-3.8-5.6c0.3-2.2,0.3-4.9,0.1-8.1c-0.2-3.3-0.4-6-0.4-8.4c0-2.6-0.9-4.3-2.8-4.9c-1.9-0.6-4.1-0.9-6.7-0.9H166h-14.2c-5.3,0-10.8,0-16.6-0.1c-5.8-0.1-11.3-0.1-16.6-0.1h-14.2H95c-1.2,0-2.6-0.1-4.1-0.3c-1.5-0.2-2.8-0.7-3.9-1.5c-1.2-0.8-2.1-1.9-2.8-3.3s-1-3.2-1-5.3c0-2.9,0-6.4-0.1-10.5c-0.1-4,0-7.6,0.1-10.7c0-4.2,1-7.1,3-8.6c2-1.5,5.3-2.2,9.8-2.1h7.7H117c5,0,10.3,0,15.9,0.1c5.7,0.1,11,0.1,16.1,0.1H163h8.8c3.9,0.1,7.2-0.1,9.9-0.9c2.7-0.8,4.1-2.5,4.1-5.1c0-2.2,0.1-4.6,0.2-7.3c0.1-2.7,0.2-5.2,0.2-7.3c0-3.6,1-5.8,2.9-6.7c1.9-0.9,4.4-0.2,7.3,2.1c2.9,2.5,6.4,5.4,10.3,8.7c4,3.3,7.9,6.7,12,10.2c4,3.5,8,6.9,12,10.3C234.7,114.2,238.3,117.2,241.6,119.8L241.6,119.8z"/></g></g>
</svg>