<!--?xml version="1.0" encoding="utf-8"?-->
<!-- Svg Vector Icons : http://www.onlinewebfonts.com/icon -->

<svg version="1.1" xmlns="http://www.w3.org/2000/svg" xmlns:xlink="http://www.w3.org/1999/xlink" x="0px" y="0px" viewBox="0 0 256 256" enable-background="new 0 0 256 256" xml:space="preserve">
<metadata> Svg Vector Icons : http://www.onlinewebfonts.com/icon </metadata>
<g><g><path fill="#ffffff" data-title="Layer 0" xs="0" d="M26.9,27c0-9.4,7.5-17,16.8-17h16.9c9.3,0,16.8,7.6,16.8,17v202c0,9.4-7.5,17-16.8,17H43.7c-9.3,0-16.8-7.6-16.8-17V27z M178.6,27c0-9.4,7.5-17,16.8-17h16.9c9.3,0,16.8,7.6,16.8,17v202c0,9.4-7.5,17-16.8,17h-16.9c-9.3,0-16.8-7.6-16.8-17V27z"/></g></g>
</svg>